<svg xmlns="http://www.w3.org/2000/svg" width="32" height="32" viewBox="0 0 24 24" fill="none">
  <!-- Heart outline left side -->
  <path d="M12 21 C7 17.5, 3.5 13, 3.5 9 C3.5 5.5, 6 3, 9.5 3 C11 3, 12 3.5, 12 3.5" stroke="#0284C7" stroke-width="2.2" stroke-linecap="round" stroke-linejoin="round" />
  
  <!-- Right side heart boundary / stem -->
  <path d="M12 21 C12.5 17, 14.7 11.5, 18.5 7.5" stroke="#0284C7" stroke-width="2.2" stroke-linecap="round" stroke-linejoin="round" />
  
  <!-- Leaf shape branching out on the top-right -->
  <path d="M18.5 7.5 C19.5 6.5, 21 4, 21 4 C21 4, 18.5 4.5, 17.5 5.5 C15.2 7.8, 14.5 10.5, 14.5 10.5 C14.5 10.5, 15.8 11.2, 17.2 9.5 C18.2 8.3, 18.5 7.5, 18.5 7.5 Z" stroke="#0284C7" stroke-width="2.2" stroke-linecap="round" stroke-linejoin="round" />
  
  <!-- Small leaf vein -->
  <path d="M16.2 8.8 L18.5 6.5" stroke="#0284C7" stroke-width="2.2" stroke-linecap="round" stroke-linejoin="round" />

  <!-- Right side lower outer lobe of the heart wrapping around -->
  <path d="M12 21 C16.5 17.5, 20.5 13.5, 20.5 9 C20.5 7.2, 19.5 5.8, 18.5 5" stroke="#0284C7" stroke-width="2.2" stroke-linecap="round" stroke-linejoin="round" />
</svg>